<?xml version="1.0" encoding="us-ascii" standalone="no"?><svg xmlns="http://www.w3.org/2000/svg" xmlns:xlink="http://www.w3.org/1999/xlink" contentStyleType="text/css" height="719px" preserveAspectRatio="none" style="width:924px;height:719px;background:#FFFFFF;" version="1.1" viewBox="0 0 924 719" width="924px" zoomAndPan="magnify"><defs/><g><!--class User--><g id="elem_User"><rect codeLine="1" fill="#F1F1F1" height="178.375" id="User" rx="2.5" ry="2.5" style="stroke:#181818;stroke-width:0.5;" width="389" x="207.5" y="7"/><ellipse cx="381.75" cy="23" fill="#ADD1B2" rx="11" ry="11" style="stroke:#181818;stroke-width:1.0;"/><path d="M385.8594,29 L378.1406,29 L378.1406,16.6094 L385.8594,16.6094 L385.8594,18.7656 L380.5938,18.7656 L380.5938,21.4375 L385.3594,21.4375 L385.3594,23.5938 L380.5938,23.5938 L380.5938,26.8438 L385.8594,26.8438 L385.8594,29 Z " fill="#000000"/><text fill="#000000" font-family="sans-serif" font-size="14" lengthAdjust="spacing" textLength="32" x="402.25" y="27.8467">User</text><line style="stroke:#181818;stroke-width:0.5;" x1="208.5" x2="595.5" y1="39" y2="39"/><ellipse cx="218.5" cy="52.6484" fill="none" rx="3" ry="3" style="stroke:#038048;stroke-width:1.0;"/><text fill="#000000" font-family="sans-serif" font-size="14" lengthAdjust="spacing" textLength="44" x="227.5" y="55.9951">ID : int</text><line style="stroke:#181818;stroke-width:1.0;" x1="208.5" x2="595.5" y1="63.2969" y2="63.2969"/><text fill="#000000" font-family="sans-serif" font-size="14" lengthAdjust="spacing" textLength="169" x="213.5" y="80.292">FirstName : nvarchar(70)</text><text fill="#000000" font-family="sans-serif" font-size="14" lengthAdjust="spacing" textLength="168" x="213.5" y="96.5889">LastName : nvarchar(70)</text><text fill="#000000" font-family="sans-serif" font-size="14" lengthAdjust="spacing" textLength="145" x="213.5" y="112.8857">Email : nvarchar(140)</text><text fill="#000000" font-family="sans-serif" font-size="14" lengthAdjust="spacing" textLength="133" x="213.5" y="129.1826">Pass : nvarchar(16)</text><text fill="#000000" font-family="sans-serif" font-size="14" lengthAdjust="spacing" textLength="160" x="213.5" y="145.4795">AvatarUrl : nvarchar(40)</text><text fill="#000000" font-family="sans-serif" font-size="14" lengthAdjust="spacing" textLength="134" x="213.5" y="161.7764">Bio : nvarchar(MAX)</text><text fill="#000000" font-family="sans-serif" font-size="14" lengthAdjust="spacing" textLength="377" x="213.5" y="178.0732">Role : enum(RoleType)  // Admin, Organizador, Invitado</text></g><!--class Event--><g id="elem_Event"><rect codeLine="13" fill="#F1F1F1" height="210.9688" id="Event" rx="2.5" ry="2.5" style="stroke:#181818;stroke-width:0.5;" width="517" x="315.5" y="262.37"/><ellipse cx="550.25" cy="278.37" fill="#ADD1B2" rx="11" ry="11" style="stroke:#181818;stroke-width:1.0;"/><path d="M554.3594,284.37 L546.6406,284.37 L546.6406,271.9794 L554.3594,271.9794 L554.3594,274.1356 L549.0938,274.1356 L549.0938,276.8075 L553.8594,276.8075 L553.8594,278.9637 L549.0938,278.9637 L549.0938,282.2137 L554.3594,282.2137 L554.3594,284.37 Z " fill="#000000"/><text fill="#000000" font-family="sans-serif" font-size="14" lengthAdjust="spacing" textLength="39" x="570.75" y="283.2167">Event</text><line style="stroke:#181818;stroke-width:0.5;" x1="316.5" x2="831.5" y1="294.37" y2="294.37"/><ellipse cx="326.5" cy="308.0184" fill="none" rx="3" ry="3" style="stroke:#038048;stroke-width:1.0;"/><text fill="#000000" font-family="sans-serif" font-size="14" lengthAdjust="spacing" textLength="44" x="335.5" y="311.3651">ID : int</text><line style="stroke:#181818;stroke-width:1.0;" x1="316.5" x2="831.5" y1="318.6669" y2="318.6669"/><text fill="#000000" font-family="sans-serif" font-size="14" lengthAdjust="spacing" textLength="140" x="321.5" y="335.662">Name : nvarchar(70)</text><text fill="#000000" font-family="sans-serif" font-size="14" lengthAdjust="spacing" textLength="191" x="321.5" y="351.9589">Description : nvarchar(MAX)</text><text fill="#000000" font-family="sans-serif" font-size="14" lengthAdjust="spacing" textLength="173" x="321.5" y="368.2557">StartDateTime : datetime</text><text fill="#000000" font-family="sans-serif" font-size="14" lengthAdjust="spacing" textLength="168" x="321.5" y="384.5526">EndDateTime : datetime</text><text fill="#000000" font-family="sans-serif" font-size="14" lengthAdjust="spacing" textLength="88" x="321.5" y="400.8495">Capacity : int</text><text fill="#000000" font-family="sans-serif" font-size="14" lengthAdjust="spacing" textLength="95" x="321.5" y="417.1464">CreatorID : int</text><text fill="#000000" font-family="sans-serif" font-size="14" lengthAdjust="spacing" textLength="505" x="321.5" y="433.4432">Status : enum(EventStatus)  // Borrador, Publicado, Concluido, Cancelado</text><text fill="#000000" font-family="sans-serif" font-size="14" lengthAdjust="spacing" textLength="159" x="321.5" y="449.7401">FlyerUrl : nvarchar(100)</text><text fill="#000000" font-family="sans-serif" font-size="14" lengthAdjust="spacing" textLength="167" x="321.5" y="466.037">Location : nvarchar(200)</text></g><!--class EventInvitation--><g id="elem_EventInvitation"><rect codeLine="27" fill="#F1F1F1" height="162.0781" id="EventInvitation" rx="2.5" ry="2.5" style="stroke:#181818;stroke-width:0.5;" width="446" x="7" y="550.34"/><ellipse cx="175.75" cy="566.34" fill="#ADD1B2" rx="11" ry="11" style="stroke:#181818;stroke-width:1.0;"/><path d="M179.8594,572.34 L172.1406,572.34 L172.1406,559.9494 L179.8594,559.9494 L179.8594,562.1056 L174.5938,562.1056 L174.5938,564.7775 L179.3594,564.7775 L179.3594,566.9337 L174.5938,566.9337 L174.5938,570.1837 L179.8594,570.1837 L179.8594,572.34 Z " fill="#000000"/><text fill="#000000" font-family="sans-serif" font-size="14" lengthAdjust="spacing" textLength="100" x="196.25" y="571.1867">EventInvitation</text><line style="stroke:#181818;stroke-width:0.5;" x1="8" x2="452" y1="582.34" y2="582.34"/><ellipse cx="18" cy="595.9884" fill="none" rx="3" ry="3" style="stroke:#038048;stroke-width:1.0;"/><text fill="#000000" font-family="sans-serif" font-size="14" lengthAdjust="spacing" textLength="44" x="27" y="599.3351">ID : int</text><line style="stroke:#181818;stroke-width:1.0;" x1="8" x2="452" y1="606.6369" y2="606.6369"/><text fill="#000000" font-family="sans-serif" font-size="14" lengthAdjust="spacing" textLength="83" x="13" y="623.632">EventID : int</text><text fill="#000000" font-family="sans-serif" font-size="14" lengthAdjust="spacing" textLength="76" x="13" y="639.9289">UserID : int</text><text fill="#000000" font-family="sans-serif" font-size="14" lengthAdjust="spacing" textLength="359" x="13" y="656.2257">CreatorID : int  // ID del usuario que crea la invitaci&#243;n</text><text fill="#000000" font-family="sans-serif" font-size="14" lengthAdjust="spacing" textLength="434" x="13" y="672.5226">ResponseStatus : varchar(20)  // Aceptada, Rechazada, Tal vez</text><text fill="#000000" font-family="sans-serif" font-size="14" lengthAdjust="spacing" textLength="139" x="13" y="688.8195">SentDate : datetime</text><text fill="#000000" font-family="sans-serif" font-size="14" lengthAdjust="spacing" textLength="178" x="13" y="705.1164">ResponseDate : datetime</text></g><!--class EventPost--><g id="elem_EventPost"><rect codeLine="38" fill="#F1F1F1" height="129.4844" id="EventPost" rx="2.5" ry="2.5" style="stroke:#181818;stroke-width:0.5;" width="177" x="693.5" y="566.64"/><ellipse cx="742.75" cy="582.64" fill="#ADD1B2" rx="11" ry="11" style="stroke:#181818;stroke-width:1.0;"/><path d="M746.8594,588.64 L739.1406,588.64 L739.1406,576.2494 L746.8594,576.2494 L746.8594,578.4056 L741.5938,578.4056 L741.5938,581.0775 L746.3594,581.0775 L746.3594,583.2338 L741.5938,583.2338 L741.5938,586.4838 L746.8594,586.4838 L746.8594,588.64 Z " fill="#000000"/><text fill="#000000" font-family="sans-serif" font-size="14" lengthAdjust="spacing" textLength="70" x="763.25" y="587.4867">EventPost</text><line style="stroke:#181818;stroke-width:0.5;" x1="694.5" x2="869.5" y1="598.64" y2="598.64"/><ellipse cx="704.5" cy="612.2884" fill="none" rx="3" ry="3" style="stroke:#038048;stroke-width:1.0;"/><text fill="#000000" font-family="sans-serif" font-size="14" lengthAdjust="spacing" textLength="44" x="713.5" y="615.6351">ID : int</text><line style="stroke:#181818;stroke-width:1.0;" x1="694.5" x2="869.5" y1="622.9369" y2="622.9369"/><text fill="#000000" font-family="sans-serif" font-size="14" lengthAdjust="spacing" textLength="83" x="699.5" y="639.932">EventID : int</text><text fill="#000000" font-family="sans-serif" font-size="14" lengthAdjust="spacing" textLength="76" x="699.5" y="656.2289">UserID : int</text><text fill="#000000" font-family="sans-serif" font-size="14" lengthAdjust="spacing" textLength="142" x="699.5" y="672.5257">Text : nvarchar(MAX)</text><text fill="#000000" font-family="sans-serif" font-size="14" lengthAdjust="spacing" textLength="165" x="699.5" y="688.8226">CreationDate : datetime</text></g><!--link User to Event--><g id="link_User_Event"><path codeLine="47" d="M462.8622,192.6047 C478.4322,217.0147 481.483,221.7925 497.563,247.0125 " fill="none" id="User-Event" style="stroke:#181818;stroke-width:1.0;"/><line style="stroke:#181818;stroke-width:1.0;" x1="457.3387" x2="464.0834" y1="191.3834" y2="187.0813"/><line style="stroke:#181818;stroke-width:1.0;" x1="458.952" x2="465.6968" y1="193.9127" y2="189.6106"/><line style="stroke:#181818;stroke-width:1.0;" x1="462.8622" x2="458.56" y1="192.6047" y2="185.86"/><line style="stroke:#181818;stroke-width:1.0;" x1="502.9391" x2="512.2992" y1="255.4445" y2="258.9643"/><line style="stroke:#181818;stroke-width:1.0;" x1="502.9391" x2="502.1808" y1="255.4445" y2="265.4157"/><line style="stroke:#181818;stroke-width:1.0;" x1="502.9391" x2="507.24" y1="255.4445" y2="262.19"/><ellipse cx="499.7134" cy="250.3853" fill="none" rx="4" ry="4" style="stroke:#181818;stroke-width:1.0;"/><text fill="#000000" font-family="sans-serif" font-size="13" lengthAdjust="spacing" textLength="48" x="489" y="228.4369">creates</text></g><!--link User to EventInvitation--><g id="link_User_EventInvitation"><path codeLine="48" d="M200.6549,185.6044 C170.2949,207.5344 149.66,229.75 132,262.37 C87.36,344.83 106.18,383.2 132,473.34 C139.65,500.07 143.7509,511.4143 158.5009,534.9143 " fill="none" id="User-EventInvitation" style="stroke:#181818;stroke-width:1.0;"/><line style="stroke:#181818;stroke-width:1.0;" x1="201.5553" x2="206.2396" y1="180.0196" y2="186.5047"/><line style="stroke:#181818;stroke-width:1.0;" x1="199.1233" x2="203.8077" y1="181.7763" y2="188.2614"/><line style="stroke:#181818;stroke-width:1.0;" x1="200.6549" x2="207.14" y1="185.6044" y2="180.92"/><line style="stroke:#181818;stroke-width:1.0;" x1="163.8171" x2="173.1519" y1="543.3841" y2="546.9703"/><line style="stroke:#181818;stroke-width:1.0;" x1="163.8171" x2="162.9881" y1="543.3841" y2="553.3497"/><line style="stroke:#181818;stroke-width:1.0;" x1="163.8171" x2="168.07" y1="543.3841" y2="550.16"/><ellipse cx="160.6274" cy="538.3022" fill="none" rx="4" ry="4" style="stroke:#181818;stroke-width:1.0;"/><text fill="#000000" font-family="sans-serif" font-size="13" lengthAdjust="spacing" textLength="53" x="133" y="372.4269">receives</text></g><!--link User to EventInvitation--><g id="link_User_EventInvitation"><path codeLine="49" d="M293.3231,191.7175 C273.0431,214.5175 259.75,234.56 248,262.37 C208.8,355.18 209.2725,455.175 216.7825,532.165 " fill="none" id="User-EventInvitation-1" style="stroke:#181818;stroke-width:1.0;"/><line style="stroke:#181818;stroke-width:1.0;" x1="292.9928" x2="298.9703" y1="186.0703" y2="191.3872"/><line style="stroke:#181818;stroke-width:1.0;" x1="290.999" x2="296.9765" y1="188.3119" y2="193.6288"/><line style="stroke:#181818;stroke-width:1.0;" x1="293.3231" x2="298.64" y1="191.7175" y2="185.74"/><line style="stroke:#181818;stroke-width:1.0;" x1="217.7533" x2="224.5017" y1="542.1178" y2="549.4975"/><line style="stroke:#181818;stroke-width:1.0;" x1="217.7533" x2="212.5583" y1="542.1178" y2="550.6625"/><line style="stroke:#181818;stroke-width:1.0;" x1="217.7533" x2="218.53" y1="542.1178" y2="550.08"/><ellipse cx="217.1708" cy="536.1461" fill="none" rx="4" ry="4" style="stroke:#181818;stroke-width:1.0;"/><text fill="#000000" font-family="sans-serif" font-size="13" lengthAdjust="spacing" textLength="48" x="249" y="372.4269">creates</text></g><!--link Event to EventInvitation--><g id="link_Event_EventInvitation"><path codeLine="50" d="M429.6922,478.5627 C396.3322,503.9327 381.8785,514.9153 350.2485,538.9653 " fill="none" id="Event-EventInvitation" style="stroke:#181818;stroke-width:1.0;"/><line style="stroke:#181818;stroke-width:1.0;" x1="430.4548" x2="435.2974" y1="472.9574" y2="479.3252"/><line style="stroke:#181818;stroke-width:1.0;" x1="428.0669" x2="432.9095" y1="474.7734" y2="481.1412"/><line style="stroke:#181818;stroke-width:1.0;" x1="429.6922" x2="436.06" y1="478.5627" y2="473.72"/><line style="stroke:#181818;stroke-width:1.0;" x1="342.2882" x2="339.5516" y1="545.0179" y2="554.6362"/><line style="stroke:#181818;stroke-width:1.0;" x1="342.2882" x2="332.2884" y1="545.0179" y2="545.0838"/><line style="stroke:#181818;stroke-width:1.0;" x1="342.2882" x2="335.92" y1="545.0179" y2="549.86"/><ellipse cx="347.0644" cy="541.3863" fill="none" rx="4" ry="4" style="stroke:#181818;stroke-width:1.0;"/><text fill="#000000" font-family="sans-serif" font-size="13" lengthAdjust="spacing" textLength="23" x="393" y="516.4069">has</text></g><!--link Event to EventPost--><g id="link_Event_EventPost"><path codeLine="51" d="M662.3797,479.9812 C687.2497,511.2512 697.5638,524.2238 719.7038,552.0538 " fill="none" id="Event-EventPost" style="stroke:#181818;stroke-width:1.0;"/><line style="stroke:#181818;stroke-width:1.0;" x1="656.7593" x2="663.0205" y1="479.3405" y2="474.3607"/><line style="stroke:#181818;stroke-width:1.0;" x1="658.6267" x2="664.8878" y1="481.6884" y2="476.7087"/><line style="stroke:#181818;stroke-width:1.0;" x1="662.3797" x2="657.4" y1="479.9812" y2="473.72"/><line style="stroke:#181818;stroke-width:1.0;" x1="725.9295" x2="735.6054" y1="559.8795" y2="562.4046"/><line style="stroke:#181818;stroke-width:1.0;" x1="725.9295" x2="726.2146" y1="559.8795" y2="569.8754"/><line style="stroke:#181818;stroke-width:1.0;" x1="725.9295" x2="730.91" y1="559.8795" y2="566.14"/><ellipse cx="722.1941" cy="555.1841" fill="none" rx="4" ry="4" style="stroke:#181818;stroke-width:1.0;"/><text fill="#000000" font-family="sans-serif" font-size="13" lengthAdjust="spacing" textLength="23" x="692" y="516.4069">has</text></g><!--link User to EventPost--><g id="link_User_EventPost"><path codeLine="52" d="M604.5963,119.7098 C697.4363,140.5198 792.7,180.17 850,262.37 C913.72,353.78 869.9402,471.955 828.5502,550.515 " fill="none" id="User-EventPost" style="stroke:#181818;stroke-width:1.0;"/><line style="stroke:#181818;stroke-width:1.0;" x1="599.8183" x2="601.568" y1="122.738" y2="114.9317"/><line style="stroke:#181818;stroke-width:1.0;" x1="602.7456" x2="604.4954" y1="123.3942" y2="115.5879"/><line style="stroke:#181818;stroke-width:1.0;" x1="604.5963" x2="596.79" y1="119.7098" y2="117.96"/><line style="stroke:#181818;stroke-width:1.0;" x1="823.889" x2="825.4683" y1="559.3622" y2="569.2367"/><line style="stroke:#181818;stroke-width:1.0;" x1="823.889" x2="814.8517" y1="559.3622" y2="563.6433"/><line style="stroke:#181818;stroke-width:1.0;" x1="823.889" x2="820.16" y1="559.3622" y2="566.44"/><ellipse cx="826.6857" cy="554.0539" fill="none" rx="4" ry="4" style="stroke:#181818;stroke-width:1.0;"/><text fill="#000000" font-family="sans-serif" font-size="13" lengthAdjust="spacing" textLength="35" x="881" y="372.4269">posts</text></g><!--SRC=[dLFRJkCm47tlLupo1DfMNBHY9TvA2n8Ibuej4g-3Cm9BhXri9wA5_QhzXFsndN4QcePKGhoqnsV6dZbd9cIZZal8xWFv332007WR0Fo0oocSWhQH3wCH_rne7-8DBeXfMw5Np-ZtVXtkS-WATqNE5wXDcpxwcVWPXh15dmWxhZ2Yl_TRD-eBPzgroUlnWx1tpaXHikLYJ_1yMT0-mC41ZFE5jaEuzKzezGfpvuTmQIiT6Gx-30QqLdvUCKhI4zgXlL_Sb8BokeZQsPxUVhEKECL8SvqkvmmZGt75vls12HQefA-c-iGJHkTR_V2piGoDwDHqJTMwpvptjTfP-MYqOZo4YRFAb3f1j8gCcC0JDKlgkdrqM4_KAUpgEfPGrxhQKqdTcBZXTjXPPsr8sRhMiICwwU93JWRAKABdLNWf2HIdWK5EaN9A__jhPIKe5Cu6-l1fq_vwCnGLl0Kuv5GEh1ASeu6ALk8ljoR3sHvCysetqhLZva9hc-JqFGlcz1fxTYevmxxsj96-tFVtqSYzhLVv53AnA5B8FaTRC-8yJufqzON4ZmVh4hiJdx4tAJdIX3_LQg85_uViFm00]--></g></svg>