<?xml version="1.0" encoding="us-ascii" standalone="no"?><svg xmlns="http://www.w3.org/2000/svg" xmlns:xlink="http://www.w3.org/1999/xlink" contentStyleType="text/css" height="1182px" preserveAspectRatio="none" style="width:425px;height:1182px;background:#FFFFFF;" version="1.1" viewBox="0 0 425 1182" width="425px" zoomAndPan="magnify"><defs/><g><!--cluster EventsTracker--><g id="cluster_EventsTracker"><path d="M159.82,6 L274.82,6 A3.75,3.75 0 0 1 277.32,8.5 L284.32,28.2969 L416.21,28.2969 A2.5,2.5 0 0 1 418.71,30.7969 L418.71,1172.5 A2.5,2.5 0 0 1 416.21,1175 L159.82,1175 A2.5,2.5 0 0 1 157.32,1172.5 L157.32,8.5 A2.5,2.5 0 0 1 159.82,6 " fill="none" style="stroke:#000000;stroke-width:1.5;"/><line style="stroke:#000000;stroke-width:1.5;" x1="157.32" x2="284.32" y1="28.2969" y2="28.2969"/><text fill="#000000" font-family="sans-serif" font-size="14" font-weight="bold" lengthAdjust="spacing" textLength="114" x="161.32" y="20.9951">EventsTracker</text></g><g id="elem_UC_Register"><ellipse cx="288.0135" cy="729.0047" fill="#F1F1F1" rx="79.3735" ry="18.2747" style="stroke:#181818;stroke-width:0.5;"/><text fill="#000000" font-family="sans-serif" font-size="14" lengthAdjust="spacing" textLength="117" x="227.6076" y="732.4548">Registrar usuario</text></g><g id="elem_UC_Login"><ellipse cx="288.0111" cy="1143.0002" fill="#F1F1F1" rx="68.6011" ry="16.1202" style="stroke:#181818;stroke-width:0.5;"/><text fill="#000000" font-family="sans-serif" font-size="14" lengthAdjust="spacing" textLength="89" x="240.5111" y="1146.7478">Iniciar sesi&#243;n</text></g><g id="elem_UC_ViewProfile"><ellipse cx="288.0102" cy="1077.0038" fill="#F1F1F1" rx="54.8402" ry="14.7338" style="stroke:#181818;stroke-width:0.5;"/><text fill="#000000" font-family="sans-serif" font-size="14" lengthAdjust="spacing" textLength="60" x="255.0102" y="1080.7514">Ver perfil</text></g><g id="elem_UC_EditProfile"><ellipse cx="288.0094" cy="1012.0019" fill="#F1F1F1" rx="64.0594" ry="15.2119" style="stroke:#181818;stroke-width:0.5;"/><text fill="#000000" font-family="sans-serif" font-size="14" lengthAdjust="spacing" textLength="76" x="247.0094" y="1015.7494">Editar perfil</text></g><g id="elem_UC_AssignRole"><ellipse cx="288.0115" cy="60.9983" fill="#F1F1F1" rx="88.7915" ry="20.1583" style="stroke:#181818;stroke-width:0.5;"/><text fill="#000000" font-family="sans-serif" font-size="14" lengthAdjust="spacing" textLength="139" x="218.5115" y="63.845">Asignar rol a usuario</text></g><g id="elem_UC_CreateEvent"><ellipse cx="288.0111" cy="270.0002" fill="#F1F1F1" rx="68.6011" ry="16.1202" style="stroke:#181818;stroke-width:0.5;"/><text fill="#000000" font-family="sans-serif" font-size="14" lengthAdjust="spacing" textLength="89" x="240.5111" y="273.7478">Crear evento</text></g><g id="elem_UC_EditEvent"><ellipse cx="288.0088" cy="202.9958" fill="#F1F1F1" rx="69.3288" ry="16.2658" style="stroke:#181818;stroke-width:0.5;"/><text fill="#000000" font-family="sans-serif" font-size="14" lengthAdjust="spacing" textLength="91" x="239.5088" y="206.7433">Editar evento</text></g><g id="elem_UC_CancelEvent"><ellipse cx="288.0136" cy="134.0007" fill="#F1F1F1" rx="77.3536" ry="17.8707" style="stroke:#181818;stroke-width:0.5;"/><text fill="#000000" font-family="sans-serif" font-size="14" lengthAdjust="spacing" textLength="112" x="229.2933" y="137.6754">Cancelar evento</text></g><g id="elem_UC_ViewEvents"><ellipse cx="288.0126" cy="946.0025" fill="#F1F1F1" rx="66.4626" ry="15.6925" style="stroke:#181818;stroke-width:0.5;"/><text fill="#000000" font-family="sans-serif" font-size="14" lengthAdjust="spacing" textLength="83" x="243.5126" y="949.7501">Ver eventos</text></g><g id="elem_UC_JoinEvent"><ellipse cx="288.0054" cy="877.9951" fill="#F1F1F1" rx="75.7754" ry="17.5551" style="stroke:#181818;stroke-width:0.5;"/><text fill="#000000" font-family="sans-serif" font-size="14" lengthAdjust="spacing" textLength="108" x="231.0054" y="881.7426">Unirse a evento</text></g><g id="elem_UC_ViewEventDetails"><ellipse cx="288.0095" cy="804.0019" fill="#F1F1F1" rx="95.9095" ry="21.5819" style="stroke:#181818;stroke-width:0.5;"/><text fill="#000000" font-family="sans-serif" font-size="14" lengthAdjust="spacing" textLength="155" x="210.5095" y="806.8486">Ver detalles de evento</text></g><g id="elem_UC_SendInvitation"><ellipse cx="288.0076" cy="339.0035" fill="#F1F1F1" rx="76.1676" ry="17.6335" style="stroke:#181818;stroke-width:0.5;"/><text fill="#000000" font-family="sans-serif" font-size="14" lengthAdjust="spacing" textLength="109" x="230.5076" y="342.7511">Enviar invitaci&#243;n</text></g><g id="elem_UC_RespondInvitation"><ellipse cx="288.0093" cy="654.0019" fill="#F1F1F1" rx="96.8093" ry="21.7619" style="stroke:#181818;stroke-width:0.5;"/><text fill="#000000" font-family="sans-serif" font-size="14" lengthAdjust="spacing" textLength="157" x="209.5093" y="656.8485">Responder a invitaci&#243;n</text></g><g id="elem_UC_ViewInvitations"><ellipse cx="288.0054" cy="579.9951" fill="#F1F1F1" rx="75.7754" ry="17.5551" style="stroke:#181818;stroke-width:0.5;"/><text fill="#000000" font-family="sans-serif" font-size="14" lengthAdjust="spacing" textLength="108" x="231.0054" y="583.7426">Ver invitaciones</text></g><g id="elem_UC_CreateEventPost"><ellipse cx="288.0104" cy="502.0001" fill="#F1F1F1" rx="113.3004" ry="25.0601" style="stroke:#181818;stroke-width:0.5;"/><text fill="#000000" font-family="sans-serif" font-size="14" lengthAdjust="spacing" textLength="193" x="191.5104" y="504.8468">Crear publicaci&#243;n en evento</text></g><g id="elem_UC_ViewEventPosts"><ellipse cx="288.0057" cy="416.9991" fill="#F1F1F1" rx="114.6957" ry="25.3391" style="stroke:#181818;stroke-width:0.5;"/><text fill="#000000" font-family="sans-serif" font-size="14" lengthAdjust="spacing" textLength="196" x="190.0057" y="419.8458">Ver publicaciones de evento</text></g><!--entity User--><g id="elem_User"><ellipse cx="91.82" cy="699.35" fill="#F1F1F1" rx="8" ry="8" style="stroke:#181818;stroke-width:0.5;"/><path d="M91.82,707.35 L91.82,734.35 M78.82,715.35 L104.82,715.35 M91.82,734.35 L78.82,749.35 M91.82,734.35 L104.82,749.35 " fill="none" style="stroke:#181818;stroke-width:0.5;"/><text fill="#000000" font-family="sans-serif" font-size="14" lengthAdjust="spacing" textLength="32" x="75.82" y="763.8451">User</text></g><!--entity Admin--><g id="elem_Admin"><ellipse cx="91.82" cy="80.35" fill="#F1F1F1" rx="8" ry="8" style="stroke:#181818;stroke-width:0.5;"/><path d="M91.82,88.35 L91.82,115.35 M78.82,96.35 L104.82,96.35 M91.82,115.35 L78.82,130.35 M91.82,115.35 L104.82,130.35 " fill="none" style="stroke:#181818;stroke-width:0.5;"/><text fill="#000000" font-family="sans-serif" font-size="14" lengthAdjust="spacing" textLength="43" x="70.32" y="144.8451">Admin</text></g><!--entity Host--><g id="elem_Host"><ellipse cx="91.82" cy="240.35" fill="#F1F1F1" rx="8" ry="8" style="stroke:#181818;stroke-width:0.5;"/><path d="M91.82,248.35 L91.82,275.35 M78.82,256.35 L104.82,256.35 M91.82,275.35 L78.82,290.35 M91.82,275.35 L104.82,290.35 " fill="none" style="stroke:#181818;stroke-width:0.5;"/><text fill="#000000" font-family="sans-serif" font-size="14" lengthAdjust="spacing" textLength="32" x="75.82" y="304.8451">Host</text></g><!--link Admin to User--><g id="link_Admin_User"><path d="M70.85,148.38 C59.33,171.67 46.22,202.43 40.32,231.5 C6,400.41 50.893,589.1889 75.023,673.2389 " fill="none" id="Admin-to-User" style="stroke:#181818;stroke-width:1.0;"/><polygon fill="none" points="79.99,690.54,80.79,671.5832,69.256,674.8945,79.99,690.54" style="stroke:#181818;stroke-width:1.0;"/></g><!--link Host to User--><g id="link_Host_User"><path d="M91.82,308.6 C91.82,435.88 91.82,545.17 91.82,672.45 " fill="none" id="Host-to-User" style="stroke:#181818;stroke-width:1.0;"/><polygon fill="none" points="91.82,690.45,97.82,672.45,85.82,672.45,91.82,690.45" style="stroke:#181818;stroke-width:1.0;"/></g><!--link User to UC_Register--><g id="link_User_UC_Register"><path d="M108.05,729 C129.69,729 164.86,729 202.25,729 " fill="none" id="User-to-UC_Register" style="stroke:#181818;stroke-width:1.0;"/><polygon fill="#181818" points="208.25,729,199.25,725,203.25,729,199.25,733,208.25,729" style="stroke:#181818;stroke-width:1.0;"/></g><!--link User to UC_Login--><g id="link_User_UC_Login"><path d="M93.28,767.54 C95.13,853.95 104.26,1059.48 149.32,1109 C167.05,1128.49 188.0842,1136.6891 213.4642,1140.7191 " fill="none" id="User-to-UC_Login" style="stroke:#181818;stroke-width:1.0;"/><polygon fill="#181818" points="219.39,1141.66,211.1286,1136.2981,214.4519,1140.8759,209.8741,1144.1991,219.39,1141.66" style="stroke:#181818;stroke-width:1.0;"/></g><!--link User to UC_ViewProfile--><g id="link_User_UC_ViewProfile"><path d="M94.54,767.56 C98.7,842.88 111.89,1005.6 149.32,1045 C170.61,1067.42 198.3217,1075.0102 227.0517,1077.4602 " fill="none" id="User-to-UC_ViewProfile" style="stroke:#181818;stroke-width:1.0;"/><polygon fill="#181818" points="233.03,1077.97,224.4024,1073.2198,228.0481,1077.5452,223.7227,1081.1908,233.03,1077.97" style="stroke:#181818;stroke-width:1.0;"/></g><!--link User to UC_EditProfile--><g id="link_User_UC_EditProfile"><path d="M96.57,767.49 C103.46,829.96 120.13,949.43 149.32,979 C168.66,998.59 191.4875,1006.5314 217.7375,1010.1914 " fill="none" id="User-to-UC_EditProfile" style="stroke:#181818;stroke-width:1.0;"/><polygon fill="#181818" points="223.68,1011.02,215.3186,1005.8155,218.7279,1010.3295,214.2139,1013.7388,223.68,1011.02" style="stroke:#181818;stroke-width:1.0;"/></g><!--link Admin to UC_AssignRole--><g id="link_Admin_UC_AssignRole"><path d="M113.6,104.76 C140.51,97.97 182.7225,87.3187 221.4225,77.5487 " fill="none" id="Admin-to-UC_AssignRole" style="stroke:#181818;stroke-width:1.0;"/><polygon fill="#181818" points="227.24,76.08,217.5347,74.4047,222.3921,77.3039,219.4929,82.1613,227.24,76.08" style="stroke:#181818;stroke-width:1.0;"/></g><!--link Host to UC_CreateEvent--><g id="link_Host_UC_CreateEvent"><path d="M108.05,270 C131.84,270 173.21,270 213.24,270 " fill="none" id="Host-to-UC_CreateEvent" style="stroke:#181818;stroke-width:1.0;"/><polygon fill="#181818" points="219.24,270,210.24,266,214.24,270,210.24,274,219.24,270" style="stroke:#181818;stroke-width:1.0;"/></g><!--link Host to UC_EditEvent--><g id="link_Host_UC_EditEvent"><path d="M107.97,259.12 C118.98,251.67 134.48,242.07 149.32,236 C175.14,225.43 199.2557,218.9716 224.6457,213.6916 " fill="none" id="Host-to-UC_EditEvent" style="stroke:#181818;stroke-width:1.0;"/><polygon fill="#181818" points="230.52,212.47,220.8941,210.3862,225.6247,213.488,222.5229,218.2186,230.52,212.47" style="stroke:#181818;stroke-width:1.0;"/></g><!--link Host to UC_CancelEvent--><g id="link_Host_UC_CancelEvent"><path d="M105.56,231.75 C114.57,210.31 128.76,184.79 149.32,169 C168.39,154.35 187.0464,147.0619 210.0964,142.0619 " fill="none" id="Host-to-UC_CancelEvent" style="stroke:#181818;stroke-width:1.0;"/><polygon fill="#181818" points="215.96,140.79,206.3166,138.7888,211.0736,141.8499,208.0125,146.607,215.96,140.79" style="stroke:#181818;stroke-width:1.0;"/></g><!--link User to UC_ViewEvents--><g id="link_User_UC_ViewEvents"><path d="M93.89,767.53 C97.2,809.33 109,875.14 149.32,913 C168.76,931.26 190.5216,939.0456 215.9816,943.0156 " fill="none" id="User-to-UC_ViewEvents" style="stroke:#181818;stroke-width:1.0;"/><polygon fill="#181818" points="221.91,943.94,213.6337,938.6011,216.9697,943.1697,212.4012,946.5056,221.91,943.94" style="stroke:#181818;stroke-width:1.0;"/></g><!--link User to UC_JoinEvent--><g id="link_User_UC_JoinEvent"><path d="M102.74,767.39 C111.15,792.44 125.69,823.91 149.32,843 C168.21,858.27 187.0801,865.7275 210.3701,870.6575 " fill="none" id="User-to-UC_JoinEvent" style="stroke:#181818;stroke-width:1.0;"/><polygon fill="#181818" points="216.24,871.9,208.2635,866.1229,211.3484,870.8645,206.6067,873.9495,216.24,871.9" style="stroke:#181818;stroke-width:1.0;"/></g><!--link User to UC_ViewEventDetails--><g id="link_User_UC_ViewEventDetails"><path d="M107.95,740.37 C118.95,748.19 134.46,758.34 149.32,765 C171.08,774.76 190.0882,781.1231 212.5982,787.2131 " fill="none" id="User-to-UC_ViewEventDetails" style="stroke:#181818;stroke-width:1.0;"/><polygon fill="#181818" points="218.39,788.78,210.747,782.5684,213.5635,787.4742,208.6577,790.2908,218.39,788.78" style="stroke:#181818;stroke-width:1.0;"/></g><!--link Host to UC_SendInvitation--><g id="link_Host_UC_SendInvitation"><path d="M107.99,280.81 C119.01,288.24 134.52,297.83 149.32,304 C174.13,314.35 196.9198,320.9076 221.6398,326.5376 " fill="none" id="Host-to-UC_SendInvitation" style="stroke:#181818;stroke-width:1.0;"/><polygon fill="#181818" points="227.49,327.87,219.603,321.9713,222.6148,326.7597,217.8265,329.7715,227.49,327.87" style="stroke:#181818;stroke-width:1.0;"/></g><!--link User to UC_RespondInvitation--><g id="link_User_UC_RespondInvitation"><path d="M107.95,717.63 C118.95,709.81 134.46,699.66 149.32,693 C170.97,683.29 189.8292,676.9704 212.2492,670.8904 " fill="none" id="User-to-UC_RespondInvitation" style="stroke:#181818;stroke-width:1.0;"/><polygon fill="#181818" points="218.04,669.32,208.3068,667.815,213.2143,670.6287,210.4007,675.5362,218.04,669.32" style="stroke:#181818;stroke-width:1.0;"/></g><!--link User to UC_ViewInvitations--><g id="link_User_UC_ViewInvitations"><path d="M102.74,690.61 C111.15,665.56 125.69,634.09 149.32,615 C168.21,599.73 187.0801,592.2725 210.3701,587.3425 " fill="none" id="User-to-UC_ViewInvitations" style="stroke:#181818;stroke-width:1.0;"/><polygon fill="#181818" points="216.24,586.1,206.6067,584.0505,211.3484,587.1355,208.2635,591.8771,216.24,586.1" style="stroke:#181818;stroke-width:1.0;"/></g><!--link User to UC_CreateEventPost--><g id="link_User_UC_CreateEventPost"><path d="M94.41,690.59 C98.19,649.22 110.42,584.08 149.32,545 C162.04,532.22 172.8635,525.314 189.9535,518.984 " fill="none" id="User-to-UC_CreateEventPost" style="stroke:#181818;stroke-width:1.0;"/><polygon fill="#181818" points="195.58,516.9,185.751,516.275,190.8913,518.6367,188.5296,523.777,195.58,516.9" style="stroke:#181818;stroke-width:1.0;"/></g><!--link User to UC_ViewEventPosts--><g id="link_User_UC_ViewEventPosts"><path d="M96.08,690.59 C102.45,624.35 118.7,492.49 149.32,459 C160.87,446.36 170.4939,439.6441 186.6039,433.4141 " fill="none" id="User-to-UC_ViewEventPosts" style="stroke:#181818;stroke-width:1.0;"/><polygon fill="#181818" points="192.2,431.25,182.3631,430.7654,187.5366,433.0534,185.2486,438.2269,192.2,431.25" style="stroke:#181818;stroke-width:1.0;"/></g><!--SRC=[VLF1JWCX4Btp5QJt_aAJfZQnnaEZjbU3x7ITYB1XQ3seN-Kd-6F2iji5IjtBmfltXidC6mK7nvtX5jjNnnkq81qQpPYGpbY-8x33STcyenxEjuOSwm4-_rf4Li2c6-k4V1CjyDdw1DhHa_Lti3F-oRZ_ZWHIa8y-G8lahB0UEWgBPiO5yTtgEGPyfeo-qIZHama8Vt_qIButhQyjO-x1yWxi0TL8sYDyRAtn2EJKTODEbEm0LjbBmbPxkZMAYxBg9ONeW_6YNBMou3KGUd4c1yn1tvzgGJaxW1NkIcW9wZ9t3rVueI-HIcbZufHowawZzNzHfBupgAyaRi09fO3yeH2TtxZn55HKj6UjJs6iw7zEo7IqZw2RJG_tlYpCGvtHZNzOrAH3-9ew53ogZ8Qi7PE6QdFiZYyAPNoDWxu-rsrOb4jVZlBmx3-z2cfYtuo5bUBp-I9RZ1IC2v0YgTjJFFNriC4na5etxdB4KvUc-EJ7Z9tuhYndy5WAJrwgaizcIPye797tffnucJOTR1ehPrOjfv_77m00]--></g></svg>