<?xml version="1.0" encoding="us-ascii" standalone="no"?><svg xmlns="http://www.w3.org/2000/svg" xmlns:xlink="http://www.w3.org/1999/xlink" contentStyleType="text/css" height="449px" preserveAspectRatio="none" style="width:312px;height:449px;background:#FFFFFF;" version="1.1" viewBox="0 0 312 449" width="312px" zoomAndPan="magnify"><defs/><g><!--cluster EventsTracker--><g id="cluster_EventsTracker"><path d="M84.5,6 L199.5,6 A3.75,3.75 0 0 1 202,8.5 L209,28.2969 L303.32,28.2969 A2.5,2.5 0 0 1 305.82,30.7969 L305.82,439.5 A2.5,2.5 0 0 1 303.32,442 L84.5,442 A2.5,2.5 0 0 1 82,439.5 L82,8.5 A2.5,2.5 0 0 1 84.5,6 " fill="none" style="stroke:#000000;stroke-width:1.5;"/><line style="stroke:#000000;stroke-width:1.5;" x1="82" x2="209" y1="28.2969" y2="28.2969"/><text fill="#000000" font-family="sans-serif" font-size="14" font-weight="bold" lengthAdjust="spacing" textLength="114" x="86" y="20.9951">EventsTracker</text></g><g id="elem_UC_CreateEvent"><ellipse cx="193.9111" cy="195.0002" fill="#F1F1F1" rx="68.6011" ry="16.1202" style="stroke:#181818;stroke-width:0.5;"/><text fill="#000000" font-family="sans-serif" font-size="14" lengthAdjust="spacing" textLength="89" x="146.4111" y="198.7478">Crear evento</text></g><g id="elem_UC_EditEvent"><ellipse cx="193.9088" cy="127.9958" fill="#F1F1F1" rx="69.3288" ry="16.2658" style="stroke:#181818;stroke-width:0.5;"/><text fill="#000000" font-family="sans-serif" font-size="14" lengthAdjust="spacing" textLength="91" x="145.4088" y="131.7433">Editar evento</text></g><g id="elem_UC_CancelEvent"><ellipse cx="193.9136" cy="59.0007" fill="#F1F1F1" rx="77.3536" ry="17.8707" style="stroke:#181818;stroke-width:0.5;"/><text fill="#000000" font-family="sans-serif" font-size="14" lengthAdjust="spacing" textLength="112" x="135.1933" y="62.6754">Cancelar evento</text></g><g id="elem_UC_ViewEvents"><ellipse cx="193.9126" cy="410.0025" fill="#F1F1F1" rx="66.4626" ry="15.6925" style="stroke:#181818;stroke-width:0.5;"/><text fill="#000000" font-family="sans-serif" font-size="14" lengthAdjust="spacing" textLength="83" x="149.4126" y="413.7501">Ver eventos</text></g><g id="elem_UC_JoinEvent"><ellipse cx="193.9054" cy="341.9951" fill="#F1F1F1" rx="75.7754" ry="17.5551" style="stroke:#181818;stroke-width:0.5;"/><text fill="#000000" font-family="sans-serif" font-size="14" lengthAdjust="spacing" textLength="108" x="136.9054" y="345.7426">Unirse a evento</text></g><g id="elem_UC_ViewEventDetails"><ellipse cx="193.9095" cy="268.0019" fill="#F1F1F1" rx="95.9095" ry="21.5819" style="stroke:#181818;stroke-width:0.5;"/><text fill="#000000" font-family="sans-serif" font-size="14" lengthAdjust="spacing" textLength="155" x="116.4095" y="270.8486">Ver detalles de evento</text></g><!--entity Host--><g id="elem_Host"><ellipse cx="22" cy="137.35" fill="#F1F1F1" rx="8" ry="8" style="stroke:#181818;stroke-width:0.5;"/><path d="M22,145.35 L22,172.35 M9,153.35 L35,153.35 M22,172.35 L9,187.35 M22,172.35 L35,187.35 " fill="none" style="stroke:#181818;stroke-width:0.5;"/><text fill="#000000" font-family="sans-serif" font-size="14" lengthAdjust="spacing" textLength="32" x="6" y="201.8451">Host</text></g><!--entity User--><g id="elem_User"><ellipse cx="22" cy="266.35" fill="#F1F1F1" rx="8" ry="8" style="stroke:#181818;stroke-width:0.5;"/><path d="M22,274.35 L22,301.35 M9,282.35 L35,282.35 M22,301.35 L9,316.35 M22,301.35 L35,316.35 " fill="none" style="stroke:#181818;stroke-width:0.5;"/><text fill="#000000" font-family="sans-serif" font-size="14" lengthAdjust="spacing" textLength="32" x="6" y="330.8451">User</text></g><!--link Host to User--><g id="link_Host_User"><path d="M22,205.51 C22,222.83 22,222.14 22,239.45 " fill="none" id="Host-to-User" style="stroke:#181818;stroke-width:1.0;"/><polygon fill="none" points="22,257.45,28,239.45,16,239.45,22,257.45" style="stroke:#181818;stroke-width:1.0;"/></g><!--link Host to UC_CreateEvent--><g id="link_Host_UC_CreateEvent"><path d="M38.38,169.53 C60.43,173.17 96.28,179.0736 130.84,184.7736 " fill="none" id="Host-to-UC_CreateEvent" style="stroke:#181818;stroke-width:1.0;"/><polygon fill="#181818" points="136.76,185.75,128.5309,180.3387,131.8266,184.9363,127.229,188.2321,136.76,185.75" style="stroke:#181818;stroke-width:1.0;"/></g><!--link Host to UC_EditEvent--><g id="link_Host_UC_EditEvent"><path d="M38.38,163.47 C61.82,158.09 101.6923,148.9434 137.3423,140.7534 " fill="none" id="Host-to-UC_EditEvent" style="stroke:#181818;stroke-width:1.0;"/><polygon fill="#181818" points="143.19,139.41,133.5229,137.5267,138.3169,140.5295,135.3141,145.3236,143.19,139.41" style="stroke:#181818;stroke-width:1.0;"/></g><!--link Host to UC_CancelEvent--><g id="link_Host_UC_CancelEvent"><path d="M38.35,135.89 C47,121.27 59.07,104.74 74,94 C90.25,82.31 104.5931,76.0849 123.6531,70.8649 " fill="none" id="Host-to-UC_CancelEvent" style="stroke:#181818;stroke-width:1.0;"/><polygon fill="#181818" points="129.44,69.28,119.7031,67.7994,124.6176,70.6007,121.8162,75.5152,129.44,69.28" style="stroke:#181818;stroke-width:1.0;"/></g><!--link User to UC_ViewEvents--><g id="link_User_UC_ViewEvents"><path d="M38.42,332.27 C46.82,348.09 58.67,365.59 74,377 C91.44,389.98 107.9057,396.5019 128.4757,401.2819 " fill="none" id="User-to-UC_ViewEvents" style="stroke:#181818;stroke-width:1.0;"/><polygon fill="#181818" points="134.32,402.64,126.459,396.7067,129.4498,401.5083,124.6482,404.4991,134.32,402.64" style="stroke:#181818;stroke-width:1.0;"/></g><!--link User to UC_JoinEvent--><g id="link_User_UC_JoinEvent"><path d="M38.38,300.16 C61.82,306.51 101.7484,317.3223 137.3984,326.9723 " fill="none" id="User-to-UC_JoinEvent" style="stroke:#181818;stroke-width:1.0;"/><polygon fill="#181818" points="143.19,328.54,135.5478,322.3274,138.3637,327.2336,133.4575,330.0495,143.19,328.54" style="stroke:#181818;stroke-width:1.0;"/></g><!--link User to UC_ViewEventDetails--><g id="link_User_UC_ViewEventDetails"><path d="M38.38,293.47 C56.02,290.56 80.3597,286.5448 109.4497,281.7548 " fill="none" id="User-to-UC_ViewEventDetails" style="stroke:#181818;stroke-width:1.0;"/><polygon fill="#181818" points="115.37,280.78,105.8397,278.2954,110.4364,281.5924,107.1395,286.1891,115.37,280.78" style="stroke:#181818;stroke-width:1.0;"/></g><!--SRC=[TP4x3i8m38RtdCBgpXLOIYN4J5cHbHg8Y19a6nY0kvD02sqfMMB_-VoCfvs2Hc2tFoWqZicgYy4Oj1ePbb6qDMiXDjc7sNt-zim9xH7t14LreQ2ovkGJ5t0paCvPoAAarv896IWpiG0KgCjjrfHUSKEuQfp-q5cSO4iCblnlxfSymM-eGwLZDuwkx-w7Q1qSfnj7gLVHXJ-96rBqdYGPew1FZKL2d1VpCEqcP_FnBlhwT-e1tPikVqEdzoRfoz-E9-6sfIS0]--></g></svg>